<svg id="그룹_13680" data-name="그룹 13680" xmlns="http://www.w3.org/2000/svg" xmlns:xlink="http://www.w3.org/1999/xlink" width="278.653" height="57" viewBox="0 0 278.653 57">
  <defs>
    <clipPath id="clip-path">
      <rect id="사각형_3593" data-name="사각형 3593" width="278.653" height="57" fill="none"/>
    </clipPath>
  </defs>
  <g id="그룹_13679" data-name="그룹 13679" clip-path="url(#clip-path)">
    <path id="패스_10631" data-name="패스 10631" d="M135.26,19.754l6.115-6.106a5.061,5.061,0,0,0-7.157-7.157L128.1,12.6a5.061,5.061,0,1,0,7.157,7.157" transform="translate(-87.451 -3.461)" fill="#c00020"/>
    <path id="패스_10632" data-name="패스 10632" d="M80.828,0a5.066,5.066,0,0,0-5.06,5.061V12.6a5.06,5.06,0,0,0,10.121,0V5.061A5.066,5.066,0,0,0,80.828,0" transform="translate(-52.328)" fill="#e95d15"/>
    <path id="패스_10633" data-name="패스 10633" d="M80.828,127.159a5.066,5.066,0,0,0-5.06,5.06v7.541a5.06,5.06,0,0,0,10.121,0v-7.541a5.066,5.066,0,0,0-5.06-5.06" transform="translate(-52.328 -87.821)" fill="#e95d15"/>
    <path id="패스_10634" data-name="패스 10634" d="M139.762,75.768H132.22a5.06,5.06,0,0,0,0,10.121h7.542a5.06,5.06,0,0,0,0-10.121" transform="translate(-87.822 -52.328)" fill="#e95d15"/>
    <path id="패스_10635" data-name="패스 10635" d="M17.662,80.828a5.066,5.066,0,0,0-5.06-5.06H5.061a5.06,5.06,0,1,0,0,10.121H12.6a5.066,5.066,0,0,0,5.06-5.06" transform="translate(0 -52.328)" fill="#e95d15"/>
    <path id="패스_10636" data-name="패스 10636" d="M36.133,113.566a5.067,5.067,0,0,0-7.127.03l-5.332,5.332a5.061,5.061,0,0,0,7.157,7.157l5.332-5.333a5.066,5.066,0,0,0,0-7.156Z" transform="translate(-15.327 -77.432)" fill="#e95d15"/>
    <path id="패스_10637" data-name="패스 10637" d="M120.751,113.595a5.061,5.061,0,0,0-7.157,7.157l5.332,5.332a5.061,5.061,0,0,0,7.157-7.157Z" transform="translate(-77.431 -77.431)" fill="#e95d15"/>
    <path id="패스_10638" data-name="패스 10638" d="M30.831,23.674a5.061,5.061,0,0,0-7.157,7.157l5.332,5.332a5.061,5.061,0,1,0,7.157-7.157Z" transform="translate(-15.327 -15.327)" fill="#e95d15"/>
    <path id="패스_10639" data-name="패스 10639" d="M251.164,71.917a11.127,11.127,0,0,1-7.817,2.8,11.78,11.78,0,0,1-9.262-3.778q-3.373-3.8-3.371-10.412,0-7.148,3.833-11.022a11.43,11.43,0,0,1,8.484-3.371q6.891,0,10.078,4.521A9.8,9.8,0,0,1,255,55.746h-5.705a7.7,7.7,0,0,0-1.426-2.963A5.8,5.8,0,0,0,243.255,51a5.717,5.717,0,0,0-4.909,2.509q-1.8,2.51-1.8,7.105t1.9,6.881a6,6,0,0,0,4.824,2.287,5.519,5.519,0,0,0,4.576-1.964,8.526,8.526,0,0,0,1.445-3.167h5.649a12.283,12.283,0,0,1-3.778,7.261" transform="translate(-159.341 -31.861)" fill="#161615"/>
    <path id="패스_10640" data-name="패스 10640" d="M338.83,63.468V75.324h-5.39V63.042a5.4,5.4,0,0,0-.556-2.631A2.789,2.789,0,0,0,330.142,59a3.774,3.774,0,0,0-3.176,1.4,6.4,6.4,0,0,0-1.084,3.992V75.324h-5.261V48.112h5.261v9.65a6.473,6.473,0,0,1,2.658-2.454,7.49,7.49,0,0,1,3.177-.7,8.639,8.639,0,0,1,3.4.649,5.951,5.951,0,0,1,2.51,1.983,5.259,5.259,0,0,1,1.018,2.325,28.606,28.606,0,0,1,.185,3.9" transform="translate(-221.434 -33.228)" fill="#161615"/>
    <path id="패스_10641" data-name="패스 10641" d="M391.883,71.915q2.093-2.668,7.187-2.668a12.767,12.767,0,0,1,5.891,1.315q2.575,1.316,2.575,4.966v9.261c0,.643.012,1.42.037,2.334a2.923,2.923,0,0,0,.314,1.408,1.891,1.891,0,0,0,.778.611v.779h-5.742a5.86,5.86,0,0,1-.333-1.15c-.062-.357-.111-.766-.149-1.222a10.859,10.859,0,0,1-2.519,2.02,7.6,7.6,0,0,1-3.853.98,6.622,6.622,0,0,1-4.529-1.565,5.579,5.579,0,0,1-1.788-4.437,5.759,5.759,0,0,1,2.872-5.391,12.754,12.754,0,0,1,4.631-1.3l1.8-.221a8.3,8.3,0,0,0,2.094-.463,1.585,1.585,0,0,0,1.129-1.5,1.781,1.781,0,0,0-.861-1.714,5.389,5.389,0,0,0-2.529-.473,3.292,3.292,0,0,0-2.649.927,3.85,3.85,0,0,0-.741,1.852H390.4a7.738,7.738,0,0,1,1.481-4.353M395.811,86.1a2.75,2.75,0,0,0,1.815.613,5.373,5.373,0,0,0,3.14-1q1.437-1,1.491-3.649V80.1a5.772,5.772,0,0,1-1.009.509,8.279,8.279,0,0,1-1.4.361l-1.185.223a7.619,7.619,0,0,0-2.389.722,2.42,2.42,0,0,0-1.223,2.24,2.315,2.315,0,0,0,.76,1.945" transform="translate(-269.179 -47.825)" fill="#161615"/>
    <path id="패스_10642" data-name="패스 10642" d="M466.754,52.142H461.4V47.269h5.354Zm0,22.6H461.4V54.549h5.354Z" transform="translate(-318.662 -32.646)" fill="#161615"/>
    <path id="패스_10643" data-name="패스 10643" d="M503.592,73.635a3.675,3.675,0,0,0-3.686,2.279,7.809,7.809,0,0,0-.52,3.074V89.92h-5.26V69.764h5.093V72.71a8.941,8.941,0,0,1,1.927-2.242,6.7,6.7,0,0,1,4.13-1.222,7.8,7.8,0,0,1,5.123,1.639q1.99,1.64,1.99,5.437v13.6h-5.409V77.638a5.617,5.617,0,0,0-.426-2.446,3,3,0,0,0-2.964-1.557" transform="translate(-341.264 -47.824)" fill="#161615"/>
    <path id="패스_10644" data-name="패스 10644" d="M584.086,75.114H562.839V70.3l14.1-17.654H563.191V47.808h20.857v4.576L569.766,70.3h14.319Z" transform="translate(-388.72 -33.018)" fill="#161615"/>
    <path id="패스_10645" data-name="패스 10645" d="M697.466,75.114h-5.706L680.61,55.719V75.114h-5.318V47.808h5.984L692.15,66.87V47.808h5.316Z" transform="translate(-466.384 -33.018)" fill="#161615"/>
    <path id="패스_10646" data-name="패스 10646" d="M782.286,52.727H768.6v6.281h11.985v4.741H768.6V75.2h-5.668V47.93h19.357Z" transform="translate(-526.91 -33.102)" fill="#161615"/>
    <path id="패스_10647" data-name="패스 10647" d="M851.362,47.808v4.835h-8.169V75.113H837.45V52.643h-8.207V47.808Z" transform="translate(-572.71 -33.018)" fill="#161615"/>
  </g>
</svg>
