<svg xmlns="http://www.w3.org/2000/svg" width="16.512" height="20" viewBox="0 0 16.512 20">
  <path id="path2" d="M22.358,14.812h1.66c.63-.016,1.174.354,1.092.98l-.541,4.119c-.094.714.978.9,1.335,0,.217-.551,1.276-.315,1.046.544A2.488,2.488,0,0,1,25,21.948H24.34a1.781,1.781,0,0,1-1.687-2.037l.463-3.312-1-.3a.756.756,0,0,1,.244-1.487Zm1.85-3.612a1.291,1.291,0,1,1-1.309,1.29A1.3,1.3,0,0,1,24.208,11.2ZM17.881,8.789c-1.825,0-2.777,4.46-2.777,10s.952,10,2.777,10H30.815c1.011,0,1.113-1.8.022-1.8H20.677a1.286,1.286,0,1,1,0-2.559h9.408c.97,0,1.508-1.224,1.508-2.354l0-10.836a2.3,2.3,0,0,0-2.13-2.445Z" transform="translate(-15.104 -8.788)" fill="#fff"/>
</svg>
