<svg xmlns="http://www.w3.org/2000/svg" width="64" height="64" viewBox="0 0 64 64">
  <g id="채팅하기" transform="translate(-1988.881 -992)">
    <rect id="사각형_4" data-name="사각형 4" width="64" height="64" rx="30" transform="translate(1988.881 992)" fill="#ff7a00" opacity="0"/>
    <g id="chat" transform="translate(2008.083 1011.2)">
      <path id="패스_20" data-name="패스 20" d="M24.528,6.528H18.559V1.066A1.067,1.067,0,0,0,17.493,0H1.066A1.067,1.067,0,0,0,0,1.066V18a1.066,1.066,0,0,0,1.768.8l4.385-3.836h.888v5.461a1.067,1.067,0,0,0,1.066,1.066H19.441l4.385,3.836a1.067,1.067,0,0,0,1.769-.8V7.595A1.067,1.067,0,0,0,24.528,6.528ZM7.042,7.595v5.239H5.753a1.065,1.065,0,0,0-.7.264L2.133,15.65V2.133H16.426v4.4H8.108A1.067,1.067,0,0,0,7.042,7.595Zm16.42,14.584-2.918-2.553a1.067,1.067,0,0,0-.7-.264H9.175V8.661H23.462Z" fill="#fff"/>
      <path id="패스_21" data-name="패스 21" d="M168.978,167.2H159.61a1.066,1.066,0,0,0,0,2.133h9.368a1.066,1.066,0,1,0,0-2.133Z" transform="translate(-147.976 -156.056)" fill="#fff"/>
      <path id="패스_22" data-name="패스 22" d="M234.582,220H229.9a1.066,1.066,0,0,0,0,2.133h4.683a1.066,1.066,0,0,0,0-2.133Z" transform="translate(-213.58 -205.336)" fill="#fff"/>
    </g>
    <g id="그룹_4485" data-name="그룹 4485" transform="translate(1998.755 1007.987)">
      <path id="패스_4508" data-name="패스 4508" d="M501.035,577.824,479.351,556.14l-32.442,22.111,25.9,25.9A35.257,35.257,0,0,0,501.035,577.824Z" transform="translate(-446.909 -556.14)" fill="#643000" opacity="0.23"/>
      <g id="그룹_4484" data-name="그룹 4484" transform="translate(0)">
        <g id="그룹_4482" data-name="그룹 4482" transform="translate(16.906 10.024)">
          <g id="그룹_4486" data-name="그룹 4486">
            <path id="사각형_408" data-name="사각형 408" d="M2.209,0H22.661a2.21,2.21,0,0,1,2.21,2.21v12.8a2.21,2.21,0,0,1-2.21,2.21H2.208A2.208,2.208,0,0,1,0,15.016V2.209A2.209,2.209,0,0,1,2.209,0Z" fill="#7d4f25"/>
            <path id="패스_4506" data-name="패스 4506" d="M527.24,621.578l4.093,7.09,4.093-7.09Z" transform="translate(-513.415 -606.532)" fill="#7d4f25"/>
          </g>
        </g>
        <g id="그룹_4483" data-name="그룹 4483" transform="translate(0 0)">
          <path id="사각형_409" data-name="사각형 409" d="M3,0H30.809a3,3,0,0,1,3,3V20.414a3,3,0,0,1-3,3H3a3,3,0,0,1-3-3V3A3,3,0,0,1,3,0Z" fill="#fff"/>
          <rect id="사각형_410" data-name="사각형 410" width="3.003" height="3.003" transform="translate(7.587 10.207)" fill="#ff7a00"/>
          <rect id="사각형_411" data-name="사각형 411" width="3.003" height="3.003" transform="translate(15.405 10.207)" fill="#ff7a00"/>
          <rect id="사각형_412" data-name="사각형 412" width="3.003" height="3.003" transform="translate(23.222 10.207)" fill="#ff7a00"/>
          <path id="패스_4507" data-name="패스 4507" d="M466.805,609.273l-5.93,9.638-5.2-9.638Z" transform="translate(-451.788 -588.818)" fill="#fff"/>
        </g>
      </g>
    </g>
  </g>
</svg>
