<svg xmlns="http://www.w3.org/2000/svg" width="173.972" height="65.864" viewBox="0 0 173.972 65.864">
  <g id="logo" transform="translate(-85 -24)">
    <g id="logo_inc" transform="translate(84.9 24)">
      <g id="그룹_1089" data-name="그룹 1089" transform="translate(0.1)">
        <path id="패스_1018" data-name="패스 1018" d="M9.691,92.435c-1.822-.859-3.3-1.547-3.3-2.922,0-1.066.859-1.822,2.544-1.822a8.108,8.108,0,0,1,1.65.172,7.145,7.145,0,0,0,.791.1c1.478,0,2.3-.859,2.853-2.544l.241-.688A15.391,15.391,0,0,0,8.728,83.6c-4.985,0-7.6,3.2-7.6,6.5a5.459,5.459,0,0,0,1.341,3.816,11.954,11.954,0,0,0,3.953,2.716c2.063,1,3.884,1.753,3.884,3.231,0,1.306-1.375,2.063-3.2,2.063a9.8,9.8,0,0,1-4.95-1.616L.1,104.157a14.277,14.277,0,0,0,7.356,1.891c4.641,0,8.147-2.647,8.147-6.772-.034-4.056-3.266-5.569-5.913-6.841Z" transform="translate(-0.1 -54.862)" fill="#ea002c"/>
        <path id="패스_1019" data-name="패스 1019" d="M62.95,95.113,71.372,84.8H65.357l-6.7,8.9h-.1V84.8H53.6v21.863h.309c2.131,0,4.675-1,4.675-4.572V97.072h.1l6.841,9.316h6.291L62.95,95.113Z" transform="translate(-35.209 -55.649)" fill="#ea002c"/>
        <path id="패스_1020" data-name="패스 1020" d="M96.453,16.7c-1.753.309-4.331,1.891-4.3,4.71,0,2.544,2.1,4.091,2.1,7.391A5.912,5.912,0,0,1,91.4,33.922a17.507,17.507,0,0,1,1.994-.1,21.741,21.741,0,0,1,2.509.138l7.769-9.591A33.1,33.1,0,0,0,96.453,16.7Z" transform="translate(-60.015 -10.959)" fill="#ea002c"/>
        <path id="패스_1021" data-name="패스 1021" d="M118.506,57.251c1-1.513,1.1-3.953,1.2-6.463.1-2.3.584-4.056,3.678-4.056.688,0,1.341.1,2.509.1a18.421,18.421,0,0,0,9.35-2.613A32.471,32.471,0,0,0,119.16,39.1c-.447,1.238-3.919,10.863-4.16,11.653a11.86,11.86,0,0,1,1.409,2.063,23.069,23.069,0,0,1,2.1,4.435Z" transform="translate(-75.502 -25.659)" fill="#ea002c"/>
        <path id="패스_1022" data-name="패스 1022" d="M71.294,23.754c-.413,0-.584-.275-.653-.722-.034-.447-1.994-18.322-2.3-21C68.3,1.65,68.2.894,68.2.653A.58.58,0,0,1,68.784,0c.928,0,5.981,1.169,11.31,4.916a5.734,5.734,0,0,0-4.331,5.363c0,2.922,2.131,4.572,2.131,7.494.034,4.813-5.466,5.981-6.6,5.981Z" transform="translate(-44.79 0)" fill="#ff7a00"/>
        <path id="패스_1023" data-name="패스 1023" d="M126.5,69.679a4.337,4.337,0,0,0,.241.55.555.555,0,0,0,.481.309,1.187,1.187,0,0,0,.447-.1c.413-.172,16.707-7.769,19.182-8.9.344-.172,1.031-.481,1.272-.619a.578.578,0,0,0,.344-.516.555.555,0,0,0-.1-.309,20.379,20.379,0,0,0-4.538-3.988,20.158,20.158,0,0,1-10.244,2.956c-1.2,0-1.478-.069-2.269-.069-2.372,0-2.956,1.031-3.059,3.094,0,.378-.034.928-.034,1.513-.1,1.822-.309,4.366-1.719,6.085Z" transform="translate(-83.049 -36.815)" fill="#ff7a00"/>
        <path id="패스_1024" data-name="패스 1024" d="M158.209,116.722v7.941H161.2v-8.25a4.148,4.148,0,0,1,2.406-1.169,2.288,2.288,0,0,1,2.338,2.578V124.7h2.991v-7.6a4.1,4.1,0,0,0-4.331-4.4,5.156,5.156,0,0,0-3.575,1.581,1.938,1.938,0,0,0-1.994-1.306,8.994,8.994,0,0,0-1.134.138A21.182,21.182,0,0,1,158.209,116.722Z" transform="translate(-103.655 -73.958)" fill="#ff7a00"/>
        <path id="패스_1025" data-name="패스 1025" d="M141.72,101.075a1.789,1.789,0,1,0,0-3.575,1.788,1.788,0,1,0,0,3.575Zm-1.478,13.647H143.2v-11.86h-2.956Z" transform="translate(-91.84 -63.983)" fill="#ff7a00"/>
        <path id="패스_1026" data-name="패스 1026" d="M206.082,121.575a5.413,5.413,0,0,1-2.784.825,3.739,3.739,0,0,1,0-7.46c1,0,1.409.309,2.063.309.688,0,1.066-.344,1.409-1.031.206-.378.309-.584.309-.584a7.524,7.524,0,0,0-4.228-1.134,6.137,6.137,0,0,0,0,12.272,7.745,7.745,0,0,0,4.3-1.2Z" transform="translate(-129.182 -73.827)" fill="#ff7a00"/>
        <path id="패스_1027" data-name="패스 1027" d="M235.356,141.444a1.82,1.82,0,0,1-1.856-1.822,1.864,1.864,0,0,1,1.856-1.822,1.828,1.828,0,0,1,1.891,1.822A1.894,1.894,0,0,1,235.356,141.444Z" transform="translate(-153.266 -90.43)" fill="#ff7a00"/>
      </g>
      <g id="그룹_1090" data-name="그룹 1090" transform="translate(48.226 57.202)">
        <path id="패스_1028" data-name="패스 1028" d="M166.45,169.425c.653-.447,1-.791,1-1.2,0-.309-.206-.619-.722-.619a.677.677,0,0,0-.688.722A2.585,2.585,0,0,0,166.45,169.425Zm2.956,4.228c.275.413.516.722.688.963a.749.749,0,0,1-.172.138,1.305,1.305,0,0,1-.756.241.974.974,0,0,1-.859-.413c0-.034-.034-.034-.034-.069a3.95,3.95,0,0,1-1.959.516,2.4,2.4,0,0,1-2.613-2.372,2.928,2.928,0,0,1,1.684-2.475,3.843,3.843,0,0,1-.722-1.856,1.9,1.9,0,0,1,2.131-1.925c1.444,0,2.063.825,2.063,1.65,0,.963-.481,1.513-1.684,2.406l.516.722c.344.481.687.963,1,1.409a12.812,12.812,0,0,0,.894-1.134l1.1.619a9.943,9.943,0,0,1-1.272,1.581m-1.925-.206c-.344-.481-.722-1.066-1.1-1.65-.138-.172-.275-.378-.413-.584a1.764,1.764,0,0,0-.859,1.306,1.172,1.172,0,0,0,1.341,1.169,1.767,1.767,0,0,0,1.031-.241" transform="translate(-155.587 -166.4)" fill="#ff7a00"/>
        <path id="패스_1029" data-name="패스 1029" d="M146.46,173.1a3.933,3.933,0,0,1-1.925.55,2.925,2.925,0,0,1,0-5.844,3.491,3.491,0,0,1,1,.172,2.206,2.206,0,0,0,.825.206.963.963,0,0,0,.791-.481l.309-.413a5.238,5.238,0,0,0-3.025-.894,4.331,4.331,0,0,0,0,8.663,5.316,5.316,0,0,0,2.784-.722Z" transform="translate(-140.1 -166.4)" fill="#ff7a00"/>
        <path id="패스_1030" data-name="패스 1030" d="M193.66,173.1a3.933,3.933,0,0,1-1.925.55,2.925,2.925,0,0,1,0-5.844,3.491,3.491,0,0,1,1,.172,2.206,2.206,0,0,0,.825.206.963.963,0,0,0,.791-.481l.309-.413a5.238,5.238,0,0,0-3.025-.894,4.331,4.331,0,0,0,0,8.663,5.316,5.316,0,0,0,2.784-.722Z" transform="translate(-171.075 -166.4)" fill="#ff7a00"/>
      </g>
    </g>
    <g id="DT_Hub" data-name="DT Hub" transform="translate(-170.753 -589.882)">
      <path id="패스_9651" data-name="패스 9651" d="M360.972,663.848a7.623,7.623,0,0,0,3.243-3.031,9.67,9.67,0,0,0-.01-9.01,7.69,7.69,0,0,0-3.242-3.039A10.846,10.846,0,0,0,356,647.7h-6.244v17.214H356A10.912,10.912,0,0,0,360.972,663.848Zm-8.123-1.826V650.574h3.209a6.433,6.433,0,0,1,4.539,1.514,5.448,5.448,0,0,1,1.611,4.23,5.384,5.384,0,0,1-1.608,4.209,6.489,6.489,0,0,1-4.542,1.5Z" transform="translate(0 -0.543)"/>
      <path id="패스_9652" data-name="패스 9652" d="M386.843,664.915h3.1V650.574h5.821V647.7H381v2.873h5.842Z" transform="translate(-16.157 -0.543)"/>
      <path id="패스_9653" data-name="패스 9653" d="M428.784,657.572h8.466v7.343h3.1V647.7h-3.1v6.958h-8.466V647.7h-3.1v17.214h3.1Z" transform="translate(-39.262 -0.543)"/>
      <path id="패스_9654" data-name="패스 9654" d="M468.686,663.806a4.054,4.054,0,0,1-.407,1.8,3.4,3.4,0,0,1-1.092,1.308,2.527,2.527,0,0,1-1.506.47,2.281,2.281,0,0,1-1.854-.773,3.6,3.6,0,0,1-.686-2.375v-6.914h-3.055V664.6a6.309,6.309,0,0,0,.641,2.907,4.78,4.78,0,0,0,1.838,1.971,5.177,5.177,0,0,0,2.669.7,5.119,5.119,0,0,0,2.718-.7,5.9,5.9,0,0,0,.735-.528v.945h3.055V657.319h-3.055Z" transform="translate(-57.047 -5.516)"/>
      <path id="패스_9655" data-name="패스 9655" d="M500.709,654.756a6.019,6.019,0,0,0-5.415-3.237,5.751,5.751,0,0,0-2.788.648,5.483,5.483,0,0,0-.847.566v-6.082H488.6v17.721h3.055v-.93a5.484,5.484,0,0,0,.847.566,5.75,5.75,0,0,0,2.788.648,6.021,6.021,0,0,0,5.415-3.237,7.274,7.274,0,0,0,0-6.663Zm-2.207,3.331a4.335,4.335,0,0,1-.436,1.955,3.191,3.191,0,0,1-1.192,1.327,3.245,3.245,0,0,1-1.764.475,3.329,3.329,0,0,1-3.041-1.821,4.374,4.374,0,0,1,0-3.871,3.415,3.415,0,0,1,1.236-1.335,3.381,3.381,0,0,1,1.805-.485,3.246,3.246,0,0,1,1.764.475,3.191,3.191,0,0,1,1.192,1.327A4.334,4.334,0,0,1,498.5,658.087Z" transform="translate(-71.792)"/>
    </g>
  </g>
</svg>
