<svg xmlns="http://www.w3.org/2000/svg" width="28.736" height="14.734" viewBox="0 0 28.736 14.734">
  <g id="sk_cnc" transform="translate(0 0)">
    <path id="패스_1008" data-name="패스 1008" d="M2.145,31.375c-.405-.19-.738-.343-.738-.653,0-.236.189-.409.563-.409a1.918,1.918,0,0,1,.366.038,1.186,1.186,0,0,0,.179.019c.327,0,.511-.194.634-.564l.051-.151A3.424,3.424,0,0,0,1.918,29.4,1.518,1.518,0,0,0,.225,30.846a1.249,1.249,0,0,0,.3.854,2.682,2.682,0,0,0,.883.6c.457.224.869.389.869.721,0,.295-.3.462-.712.462A2.215,2.215,0,0,1,.458,33.13L0,33.988a3.16,3.16,0,0,0,1.641.42A1.614,1.614,0,0,0,3.458,32.9c0-.908-.725-1.243-1.313-1.528m4.044.424,1.876-2.3H6.728l-1.5,1.985H5.21V29.5h-1.1V34.37h.065a.946.946,0,0,0,1.043-1.016V32.235H5.24l1.525,2.074h1.4ZM8.128,24.28a1.14,1.14,0,0,0-.961,1.047c0,.565.464.908.466,1.649A1.313,1.313,0,0,1,7,28.117c.135-.012.282-.02.443-.02a3.666,3.666,0,0,1,.557.034L9.734,26A7.24,7.24,0,0,0,8.128,24.28" transform="translate(0 -23.004)" fill="#dc0b2b"/>
    <path id="패스_1009" data-name="패스 1009" d="M168.343,60.961a3.033,3.033,0,0,0,.265-1.438c.021-.516.128-.905.819-.907.153,0,.3.021.563.019a4.067,4.067,0,0,0,2.083-.582,7.227,7.227,0,0,0-3.585-1.143c-.1.279-.869,2.422-.928,2.595a2.817,2.817,0,0,1,.312.457,5.042,5.042,0,0,1,.47,1" transform="translate(-158.754 -53.919)" fill="#dc0b2b"/>
    <path id="패스_1010" data-name="패스 1010" d="M100.147,5.291c-.088,0-.132-.058-.143-.159s-.447-4.082-.511-4.684C99.483.36,99.461.2,99.46.141A.129.129,0,0,1,99.592,0a6.08,6.08,0,0,1,2.522,1.1,1.273,1.273,0,0,0-.962,1.194c0,.655.471,1.016.474,1.672,0,1.068-1.224,1.327-1.478,1.327m3.775,2.034a.8.8,0,0,0,.054.121.118.118,0,0,0,.107.067.259.259,0,0,0,.1-.026c.091-.043,3.725-1.734,4.272-1.987.08-.038.231-.105.28-.134a.134.134,0,0,0,.075-.116.136.136,0,0,0-.022-.071,4.432,4.432,0,0,0-1.007-.892,4.486,4.486,0,0,1-2.279.659c-.265,0-.325-.018-.507-.016-.529,0-.661.228-.68.692,0,.088,0,.205-.01.335a2.322,2.322,0,0,1-.383,1.369m4.734.543h1.087V7.457h-3.27v.412h1.074l-1.218,1.584h.721L108.1,8.065l.924,1.217a.389.389,0,0,0,.33.17h.533Zm1.414,1.954h-3.924v.412h1.663V11.5h.156a.432.432,0,0,0,.432-.433v-.831h1.672V9.822Zm10.122-2.366a.287.287,0,0,0-.24.169l-.975,2.567h.608l.784-2.082.7,1.913a.274.274,0,0,0,.241.17h.438l-1.07-2.736Zm2.777,1.014h-.463V7.457h-.588v3.849h.156a.432.432,0,0,0,.432-.432V8.883h.463Zm-10.47.824a.287.287,0,0,0,.241.17h.438l-1.07-2.007h-.482a.287.287,0,0,0-.24.169l-.976,1.838h.607l.785-1.476Zm-1.45.552v.412h2.4v1.174h.156a.432.432,0,0,0,.432-.432V9.846Zm2.4-2.39h.588v2.2h-.588Zm4.974,0v3.417a.433.433,0,0,1-.432.432h-.157V7.457Zm-1.87,2.389V9.618a.932.932,0,0,0,.8-.859.834.834,0,0,0-.4-.694h.529V7.653h-.922v-.28h-.63v.28h-.943v.412h.528a.835.835,0,0,0-.4.694.936.936,0,0,0,.816.864v.223h-1.08v.412h2.81V9.845h-1.1Zm-.85-1.1a.525.525,0,1,1,.525.52.508.508,0,0,1-.525-.52m-8.185,5.894a1.2,1.2,0,0,1-.492.089.872.872,0,0,1-.921-.943.928.928,0,0,1,.974-.979,1,1,0,0,1,.443.083l-.058.2a.879.879,0,0,0-.376-.077.693.693,0,0,0-.727.769.678.678,0,0,0,.716.75.966.966,0,0,0,.393-.077Zm1.468.061c-.053-.053-.1-.105-.174-.183a.765.765,0,0,1-.545.213.527.527,0,0,1-.572-.523.612.612,0,0,1,.365-.545v-.008a.64.64,0,0,1-.155-.39.452.452,0,0,1,.473-.459.388.388,0,0,1,.412.4c0,.2-.114.351-.409.5v.008c.158.182.334.387.454.52a1.365,1.365,0,0,0,.18-.545h.221a1.425,1.425,0,0,1-.268.688c.1.105.2.21.307.33h-.289Zm-.293-.321c-.111-.122-.318-.348-.526-.587a.457.457,0,0,0-.241.379.368.368,0,0,0,.382.376.523.523,0,0,0,.385-.169m-.568-1.137a.52.52,0,0,0,.141.334c.188-.108.31-.207.31-.365a.219.219,0,0,0-.215-.241.243.243,0,0,0-.235.271m2.669,1.4a1.193,1.193,0,0,1-.492.089.872.872,0,0,1-.921-.943.928.928,0,0,1,.974-.979,1,1,0,0,1,.443.083l-.058.2a.881.881,0,0,0-.376-.077.693.693,0,0,0-.727.769.678.678,0,0,0,.716.75.966.966,0,0,0,.393-.077Z" transform="translate(-94.233 0)" fill="#ee7b06"/>
  </g>
</svg>
